<svg xmlns="http://www.w3.org/2000/svg" xmlns:xlink="http://www.w3.org/1999/xlink" data-name="Layer 1" viewBox="0 0 500 500"><defs><linearGradient id="a" x1=".14" x2=".9" y1="499.85" y2="499.12" gradientTransform="matrix(208.33 0 0 -208.33 177.08 104250)" gradientUnits="userSpaceOnUse"><stop offset="0" stop-color="#ffca4f"/><stop offset="1" stop-color="#f7ae30"/></linearGradient><linearGradient id="b" x1=".09" x2=".42" y1="499.92" y2="499.58" gradientTransform="matrix(187.5 0 0 -187.5 187.5 93843.75)" gradientUnits="userSpaceOnUse"><stop offset="0" stop-color="#ffd980"/><stop offset="1" stop-color="#ffca4f" stop-opacity="0"/></linearGradient><linearGradient id="c" x1=".46" x2=".93" y1="499.55" y2="499.1" gradientTransform="matrix(181.31 0 0 -179.17 203.13 89695.83)" gradientUnits="userSpaceOnUse"><stop offset="0" stop-color="#ffca4f" stop-opacity="0"/><stop offset="1" stop-color="#f4901f"/></linearGradient><linearGradient id="d" x1=".5" x2=".5" y1="499.97" y2="499" gradientTransform="matrix(458.33 0 0 -270.83 20.83 135624.99)" gradientUnits="userSpaceOnUse"><stop offset="0" stop-color="#eaecf7"/><stop offset="1" stop-color="#cdd3f1"/></linearGradient><linearGradient id="e" x1=".5" x2=".5" y1="499.96" y2="499.04" gradientTransform="matrix(20.83 0 0 -41.67 270.83 20843.75)" xlink:href="#a"/><linearGradient id="f" x1="-.03" x2=".97" y1="499.5" y2="499.5" gradientTransform="matrix(41.67 0 0 -20.83 104.17 10593.75)" xlink:href="#a"/><linearGradient id="g" x1=".96" x2=".02" y1="499.5" y2="499.5" gradientTransform="matrix(41.67 0 0 -20.83 416.67 10593.75)" xlink:href="#a"/><linearGradient id="h" x1=".86" x2=".08" y1="499.86" y2="499.08" gradientTransform="matrix(35.42 0 0 -35.42 373.96 17767.71)" xlink:href="#a"/><linearGradient id="i" x1=".11" x2=".91" y1="499.88" y2="499.1" gradientTransform="matrix(35.42 0 0 -35.42 153.13 17767.71)" xlink:href="#a"/><linearGradient id="j" x1=".5" x2=".5" y1="499.83" y2="498.86" gradientTransform="matrix(458.33 0 0 -125 20.83 62854.17)" gradientUnits="userSpaceOnUse"><stop offset="0" stop-color="#e2e5f4" stop-opacity="0"/><stop offset="1" stop-color="#9aa6e2"/></linearGradient></defs><g data-name="Cloudy day"><circle cx="281.25" cy="187.5" r="104.17" fill="url(#a)"/><path fill="url(#b)" d="M281.25,281.25A93.75,93.75,0,1,1,375,187.5,93.36,93.36,0,0,1,281.25,281.25Z"/><path fill="url(#c)" d="M353.12,112.5l-150,144.79a104.63,104.63,0,0,0,77.08,34.38c57.29,0,104.17-46.88,104.17-104.17C385.42,158.33,372.92,131.25,353.12,112.5Z" data-name="Path"/><path fill="url(#d)" d="M395.83,312.5h-4.17C378.12,253.12,324,208.33,260.42,208.33a136.11,136.11,0,0,0-115.62,64.58A127.63,127.63,0,0,0,125,270.83C67.71,270.83,20.83,317.71,20.83,375S67.71,479.17,125,479.17H395.83a83.33,83.33,0,1,0,0-166.67Z" data-name="Path"/><path fill="url(#e)" d="M281.25,52.08c-6.25,0-10.42-4.17-10.42-10.42V20.83c0-6.25,4.17-10.42,10.42-10.42s10.42,4.17,10.42,10.42V41.67C291.67,47.92,287.5,52.08,281.25,52.08Z" data-name="Path"/><path fill="url(#f)" d="M135.42,197.92H114.58c-6.25,0-10.42-4.17-10.42-10.42s4.17-10.42,10.42-10.42h20.83c6.25,0,10.42,4.17,10.42,10.42S141.67,197.92,135.42,197.92Z" data-name="Path"/><path fill="url(#g)" d="M447.92,197.92H427.08c-6.25,0-10.42-4.17-10.42-10.42s4.17-10.42,10.42-10.42h20.83c6.25,0,10.42,4.17,10.42,10.42S454.17,197.92,447.92,197.92Z" data-name="Path"/><path fill="url(#h)" d="M384.37,94.79a9.46,9.46,0,0,1-7.29-3.12,10.07,10.07,0,0,1,0-14.58L391.67,62.5a10.31,10.31,0,0,1,14.58,14.58L391.67,91.67A9.46,9.46,0,0,1,384.37,94.79Z" data-name="Path"/><path fill="url(#i)" d="M178.13,94.79a9.46,9.46,0,0,1-7.29-3.12L156.25,77.08A10.31,10.31,0,0,1,170.83,62.5l14.58,14.58a10.07,10.07,0,0,1,0,14.58A9.46,9.46,0,0,1,178.13,94.79Z" data-name="Path"/><path fill="url(#j)" d="M22.92,354.17A128.23,128.23,0,0,0,20.83,375c0,57.29,46.88,104.17,104.17,104.17H395.83a83.58,83.58,0,0,0,83.33-83.33,80.65,80.65,0,0,0-11.46-41.67Z" data-name="Path"/></g></svg>