<?xml version="1.0" encoding="UTF-8" standalone="no"?>
<!DOCTYPE svg PUBLIC "-//W3C//DTD SVG 1.1//EN" "http://www.w3.org/Graphics/SVG/1.1/DTD/svg11.dtd">
<svg xmlns="http://www.w3.org/2000/svg" version="1.1" viewBox="0.00 0.00 180.00 180.00">
<g stroke-width="2.00" fill="none" stroke-linecap="butt">
<path stroke="#2c1c40" vector-effect="non-scaling-stroke" d="
  M 15.85 0.00
  Q 2.31 1.86 0.00 15.42"
/>
<path stroke="#2c1c40" vector-effect="non-scaling-stroke" d="
  M 30.86 0.00
  L 35.86 0.36"
/>
<path stroke="#6f45a4" vector-effect="non-scaling-stroke" d="
  M 35.86 0.36
  L 27.55 2.70"
/>
<path stroke="#6a429d" vector-effect="non-scaling-stroke" d="
  M 27.55 2.70
  L 22.74 5.08"
/>
<path stroke="#6f45a4" vector-effect="non-scaling-stroke" d="
  M 22.74 5.08
  Q 10.83 11.25 4.73 23.28"
/>
<path stroke="#6a429d" vector-effect="non-scaling-stroke" d="
  M 4.73 23.28
  L 2.77 27.77"
/>
<path stroke="#6f45a4" vector-effect="non-scaling-stroke" d="
  M 2.77 27.77
  L 0.47 34.02"
/>
<path stroke="#2c1c40" vector-effect="non-scaling-stroke" d="
  M 0.47 34.02
  L 0.00 31.97"
/>
<path stroke="#432964" vector-effect="non-scaling-stroke" d="
  M 37.12 0.00
  L 35.86 0.36"
/>
<path stroke="#814fc1" vector-effect="non-scaling-stroke" d="
  M 55.31 0.00
  L 55.24 20.93
  A 2.23 2.23 0.0 0 1 53.00 23.15
  L 27.98 23.03
  Q 27.50 23.03 27.50 22.54
  L 27.55 2.70"
/>
<path stroke="#814fc1" vector-effect="non-scaling-stroke" d="
  M 60.04 0.00
  L 59.98 21.41
  A 1.79 1.79 0.0 0 0 61.76 23.21
  L 83.50 23.36"
/>
<path stroke="#b69dd6" vector-effect="non-scaling-stroke" d="
  M 83.50 23.36
  Q 85.61 26.09 88.90 25.34
  C 93.80 24.24 92.79 17.89 87.56 17.30"
/>
<path stroke="#814fc1" vector-effect="non-scaling-stroke" d="
  M 87.56 17.30
  L 87.91 0.00"
/>
<path stroke="#3e265d" vector-effect="non-scaling-stroke" d="
  M 142.85 0.00
  L 146.27 0.23"
/>
<path stroke="#6a429d" vector-effect="non-scaling-stroke" d="
  M 146.27 0.23
  L 146.45 0.69
  Q 146.63 1.15 147.10 1.26
  Q 160.22 4.47 169.35 14.39
  Q 175.44 20.99 177.29 29.51"
/>
<path stroke="#814fc1" vector-effect="non-scaling-stroke" d="
  M 177.29 29.51
  Q 176.35 30.01 176.06 28.35
  Q 175.98 27.93 175.56 27.93
  L 158.32 27.92
  A 1.04 1.04 0.0 0 0 157.29 29.06
  Q 158.55 41.76 157.53 54.48
  A 1.08 1.06 -87.8 0 0 158.59 55.64
  L 180.00 55.61"
/>
<path stroke="#814fc1" vector-effect="non-scaling-stroke" d="
  M 180.00 60.39
  Q 169.83 61.14 158.83 60.36
  A 1.29 1.28 -88.2 0 0 157.45 61.66
  L 157.78 87.54
  A 0.83 0.83 0.0 0 0 158.62 88.36
  L 180.00 88.09"
/>
<path stroke="#814fc1" vector-effect="non-scaling-stroke" d="
  M 180.00 92.75
  Q 169.61 93.92 159.15 92.68
  A 1.47 1.47 0.0 0 0 157.50 94.16
  L 157.71 120.10
  A 0.76 0.75 -0.7 0 0 158.49 120.85
  L 180.00 120.25"
/>
<path stroke="#814fc1" vector-effect="non-scaling-stroke" d="
  M 180.00 125.38
  L 158.14 125.27
  A 0.97 0.96 88.1 0 0 157.17 126.31
  Q 158.13 139.24 157.50 152.16
  A 0.83 0.83 0.0 0 0 158.35 153.04
  L 177.17 152.62"
/>
<path stroke="#6a429d" vector-effect="non-scaling-stroke" d="
  M 177.17 152.62
  Q 169.18 172.18 148.07 178.54"
/>
<path stroke="#814fc1" vector-effect="non-scaling-stroke" d="
  M 148.07 178.54
  Q 149.42 177.53 152.03 176.75
  Q 154.07 176.15 153.57 174.36
  Q 153.03 172.44 153.00 172.03
  Q 152.65 165.51 152.75 158.73
  A 0.52 0.51 -89.4 0 0 152.24 158.20
  L 125.75 158.17
  Q 124.78 158.16 124.86 159.13
  Q 125.70 169.37 125.05 180.00"
/>
<path stroke="#814fc1" vector-effect="non-scaling-stroke" d="
  M 120.29 180.00
  L 120.23 158.92
  A 0.93 0.93 0.0 0 0 119.29 157.99
  L 93.68 158.19
  Q 92.35 158.20 92.36 159.52
  L 92.56 180.00"
/>
<path stroke="#814fc1" vector-effect="non-scaling-stroke" d="
  M 88.00 180.00
  L 87.91 158.87
  A 0.82 0.82 0.0 0 0 87.09 158.06
  L 61.67 158.09
  Q 60.15 158.09 60.15 159.60
  L 60.13 180.00"
/>
<path stroke="#814fc1" vector-effect="non-scaling-stroke" d="
  M 55.32 180.00
  L 55.14 159.39
  A 1.29 1.29 0.0 0 0 53.85 158.11
  L 28.41 158.16
  A 0.68 0.67 -0.8 0 0 27.74 158.84
  L 27.88 177.34"
/>
<path stroke="#6a429d" vector-effect="non-scaling-stroke" d="
  M 27.88 177.34
  Q 10.63 170.92 2.95 153.25"
/>
<path stroke="#814fc1" vector-effect="non-scaling-stroke" d="
  M 2.95 153.25
  Q 12.06 152.44 20.87 153.30
  A 1.51 1.51 0.0 0 0 22.52 151.81
  L 22.79 126.45
  A 0.92 0.92 0.0 0 0 21.87 125.52
  L 0.00 125.66"
/>
<path stroke="#814fc1" vector-effect="non-scaling-stroke" d="
  M 0.00 120.70
  C 4.81 119.57 9.85 120.56 13.54 120.61
  Q 17.16 120.66 21.14 120.70
  A 1.39 1.38 -89.4 0 0 22.53 119.33
  L 22.87 94.42
  A 1.62 1.62 0.0 0 0 21.26 92.78
  L 0.00 92.62"
/>
<path stroke="#814fc1" vector-effect="non-scaling-stroke" d="
  M 0.00 88.11
  L 21.45 88.24
  A 1.15 1.15 0.0 0 0 22.61 87.10
  L 22.84 62.87
  Q 22.86 60.48 20.47 60.49
  L 0.00 60.58"
/>
<path stroke="#814fc1" vector-effect="non-scaling-stroke" d="
  M 0.00 55.55
  L 21.32 55.61
  A 1.07 1.06 0.3 0 0 22.39 54.56
  L 22.57 28.49
  A 0.71 0.71 0.0 0 0 21.86 27.78
  L 2.77 27.77"
/>
<path stroke="#814fc1" vector-effect="non-scaling-stroke" d="
  M 4.73 23.28
  L 21.43 23.24
  A 1.51 1.51 0.0 0 0 22.93 21.71
  L 22.74 5.08"
/>
<path stroke="#814fc1" vector-effect="non-scaling-stroke" d="
  M 124.76 54.98
  L 151.56 55.40
  A 1.07 1.07 0.0 0 0 152.65 54.33
  L 152.65 29.25
  A 1.40 1.40 0.0 0 0 151.24 27.85
  L 127.46 28.06
  A 1.52 1.52 0.0 0 0 126.05 30.11
  Q 126.88 32.32 125.82 32.08"
/>
<path stroke="#b69dd6" vector-effect="non-scaling-stroke" d="
  M 125.82 32.08
  Q 118.40 22.90 107.86 29.56
  Q 107.50 29.79 107.27 29.43
  Q 104.61 25.09 100.17 27.93
  A 1.41 1.41 0.0 0 0 99.59 28.70
  Q 99.08 30.38 99.06 32.75
  Q 98.97 41.62 99.22 50.50
  Q 99.36 55.92 104.74 54.78
  Q 107.92 54.11 107.87 50.74
  Q 107.78 44.75 108.04 38.75
  C 108.29 33.20 117.36 30.50 117.52 38.28
  Q 117.62 43.54 117.64 48.93
  Q 117.66 52.66 118.86 53.85
  Q 120.67 55.64 124.76 54.98"
/>
<path stroke="#baa0dd" vector-effect="non-scaling-stroke" d="
  M 125.82 32.08
  Q 126.66 38.85 126.50 49.50
  Q 126.46 52.08 124.76 54.98"
/>
<path stroke="#814fc1" vector-effect="non-scaling-stroke" d="
  M 53.34 29.92
  L 52.18 28.33
  Q 51.89 27.94 51.41 27.94
  L 28.40 27.97
  A 1.07 1.07 0.0 0 0 27.34 29.13
  Q 28.49 41.86 27.69 54.61
  A 0.98 0.97 -88.3 0 0 28.66 55.65
  L 53.63 55.73
  Q 54.06 55.73 54.38 55.44
  Q 55.19 54.70 55.70 53.63"
/>
<path stroke="#b69dd6" vector-effect="non-scaling-stroke" d="
  M 55.70 53.63
  C 62.26 56.10 76.76 56.36 77.22 46.61
  C 77.60 38.58 65.81 37.34 60.26 35.88
  A 1.28 1.28 0.0 0 1 60.00 33.51
  Q 64.38 31.26 67.53 34.41
  C 69.99 36.88 72.54 38.65 75.30 35.65
  A 1.31 1.31 0.0 0 0 75.65 34.87
  Q 75.95 31.25 74.33 30.22
  Q 63.83 23.52 53.34 29.92"
/>
<path stroke="#baa0dd" vector-effect="non-scaling-stroke" d="
  M 55.70 53.63
  C 53.25 52.43 49.47 48.88 51.37 45.84
  C 55.00 40.03 58.50 47.90 61.61 48.91
  C 63.21 49.44 67.44 49.73 68.34 47.79
  A 2.01 2.00 18.4 0 0 66.93 44.99
  C 60.16 43.58 45.49 40.69 53.34 29.92"
/>
<path stroke="#b69dd6" vector-effect="non-scaling-stroke" d="
  M 91.95 30.92
  A 3.92 3.92 0.0 0 0 88.03 27.00
  L 87.13 27.00
  A 3.92 3.92 0.0 0 0 83.21 30.92
  L 83.21 51.16
  A 3.92 3.92 0.0 0 0 87.13 55.08
  L 88.03 55.08
  A 3.92 3.92 0.0 0 0 91.95 51.16
  L 91.95 30.92"
/>
<path stroke="#b69dd6" vector-effect="non-scaling-stroke" d="
  M 42.36 88.05
  L 42.60 94.59"
/>
<path stroke="#814fc1" vector-effect="non-scaling-stroke" d="
  M 42.60 94.59
  Q 40.24 92.74 38.25 92.82
  Q 33.40 93.02 29.10 92.80
  A 1.55 1.55 0.0 0 0 27.47 94.37
  L 27.89 120.15
  A 0.83 0.82 -3.2 0 0 28.80 120.96
  C 35.95 120.22 43.00 121.09 49.99 119.97"
/>
<path stroke="#b69dd6" vector-effect="non-scaling-stroke" d="
  M 49.99 119.97
  L 49.96 125.18
  Q 49.96 125.71 49.46 125.88
  L 46.69 126.81"
/>
<path stroke="#814fc1" vector-effect="non-scaling-stroke" d="
  M 46.69 126.81
  L 44.92 125.62
  Q 44.50 125.34 44.00 125.39
  Q 36.67 126.13 29.31 125.36
  A 1.52 1.51 -87.3 0 0 27.65 126.88
  L 27.79 152.34
  A 0.89 0.88 89.7 0 0 28.68 153.23
  L 49.87 153.22
  A 0.98 0.98 0.0 0 0 50.56 152.91
  Q 51.30 152.10 51.96 151.85"
/>
<path stroke="#b69dd6" vector-effect="non-scaling-stroke" d="
  M 51.96 151.85
  Q 57.64 154.96 64.30 152.83
  C 67.13 151.93 67.75 148.15 65.23 146.94
  C 63.71 146.21 61.76 146.94 60.11 147.04
  Q 58.69 147.13 58.69 145.70
  L 58.69 132.76
  A 0.57 0.57 0.0 0 1 59.31 132.19
  C 61.37 132.42 63.84 132.01 64.39 129.69
  C 65.22 126.23 61.59 126.00 59.28 125.95
  Q 58.71 125.94 58.70 125.36
  C 58.65 122.00 59.72 117.14 54.85 116.46"
/>
<path stroke="#814fc1" vector-effect="non-scaling-stroke" d="
  M 54.85 116.46
  Q 55.82 110.44 54.38 104.13"
/>
<path stroke="#b69dd6" vector-effect="non-scaling-stroke" d="
  M 54.38 104.13
  L 59.27 104.16"
/>
<path stroke="#814fc1" vector-effect="non-scaling-stroke" d="
  M 59.27 104.16
  Q 59.29 104.34 59.27 104.45
  Q 59.24 104.63 59.25 104.63
  Q 59.39 104.63 59.54 104.63
  Q 59.79 104.63 59.80 104.89
  L 60.18 118.24
  A 2.75 2.75 0.0 0 0 62.99 120.91
  L 86.60 120.39
  A 1.24 1.24 0.0 0 0 87.82 119.15
  L 87.78 107.71
  A 1.70 1.69 -65.1 0 0 87.41 106.68
  L 84.93 103.63"
/>
<path stroke="#b69dd6" vector-effect="non-scaling-stroke" d="
  M 84.93 103.63
  L 92.72 104.24"
/>
<path stroke="#814fc1" vector-effect="non-scaling-stroke" d="
  M 92.72 104.24
  L 92.43 118.21
  A 2.75 2.74 -1.3 0 0 95.35 121.00
  Q 105.29 120.37 115.23 120.76
  Q 117.62 120.85 119.26 120.18
  Q 119.80 119.95 119.82 119.37
  L 120.39 104.21"
/>
<path stroke="#b69dd6" vector-effect="non-scaling-stroke" d="
  M 120.39 104.21
  L 125.53 104.25"
/>
<path stroke="#814fc1" vector-effect="non-scaling-stroke" d="
  M 125.53 104.25
  L 124.98 118.07
  A 2.69 2.68 -89.2 0 0 127.69 120.86
  L 151.28 120.65
  A 1.68 1.67 -0.5 0 0 152.94 118.97
  L 152.83 94.31
  A 1.43 1.42 1.5 0 0 151.49 92.90
  Q 143.82 92.44 136.30 93.80"
/>
<path stroke="#b69dd6" vector-effect="non-scaling-stroke" d="
  M 136.30 93.80
  C 133.93 87.67 125.57 86.59 119.72 85.35
  A 1.42 1.41 32.3 0 1 119.15 82.84
  C 125.33 78.11 126.97 88.66 133.67 85.78"
/>
<path stroke="#814fc1" vector-effect="non-scaling-stroke" d="
  M 133.67 85.78
  Q 133.78 88.03 135.99 88.02
  Q 143.80 88.01 151.62 88.18
  A 1.13 1.12 -89.3 0 0 152.77 87.05
  L 152.85 61.22
  Q 152.85 60.59 152.22 60.58
  L 125.92 60.38
  A 0.99 0.98 -0.8 0 0 124.92 61.40
  L 125.38 76.27"
/>
<path stroke="#b69dd6" vector-effect="non-scaling-stroke" d="
  M 125.38 76.27
  L 120.53 76.21"
/>
<path stroke="#814fc1" vector-effect="non-scaling-stroke" d="
  M 120.53 76.21
  L 120.66 62.16
  A 1.86 1.86 0.0 0 0 118.78 60.28
  L 93.75 60.55
  A 1.17 1.15 -87.5 0 0 92.61 61.61
  Q 91.93 69.21 93.57 76.16"
/>
<path stroke="#b69dd6" vector-effect="non-scaling-stroke" d="
  M 93.57 76.16
  L 87.49 76.23"
/>
<path stroke="#814fc1" vector-effect="non-scaling-stroke" d="
  M 87.49 76.23
  L 87.99 62.89
  Q 88.09 60.29 85.49 60.31
  L 60.55 60.48
  A 0.76 0.75 -1.8 0 0 59.80 61.27
  L 60.70 76.32"
/>
<path stroke="#b69dd6" vector-effect="non-scaling-stroke" d="
  M 60.70 76.32
  L 54.26 76.26"
/>
<path stroke="#814fc1" vector-effect="non-scaling-stroke" d="
  M 54.26 76.26
  Q 55.58 70.06 55.53 63.20
  C 55.51 60.86 54.48 60.11 52.24 60.20
  Q 40.31 60.63 29.27 60.45
  A 1.70 1.69 0.2 0 0 27.54 62.16
  L 27.79 87.06
  A 1.23 1.23 0.0 0 0 29.06 88.27
  L 41.16 87.88
  Q 41.38 87.87 41.54 87.72
  L 41.75 87.51
  Q 42.11 87.14 42.31 87.62
  Q 42.37 87.78 42.36 88.05"
/>
<path stroke="#baa0dd" vector-effect="non-scaling-stroke" d="
  M 54.26 76.26
  Q 44.05 78.22 42.36 88.05"
/>
<path stroke="#baa0dd" vector-effect="non-scaling-stroke" d="
  M 54.38 104.13
  Q 45.47 103.22 42.60 94.59"
/>
<path stroke="#baa0dd" vector-effect="non-scaling-stroke" d="
  M 87.49 76.23
  Q 73.88 79.84 75.93 92.68
  Q 76.59 96.76 78.70 99.36
  Q 81.12 102.33 84.93 103.63"
/>
<path stroke="#baa0dd" vector-effect="non-scaling-stroke" d="
  M 59.27 104.16
  Q 65.08 103.89 69.08 99.86
  C 71.13 97.80 72.39 93.06 68.49 92.07
  C 63.94 90.92 63.49 96.07 60.01 97.39
  C 48.20 101.85 48.42 79.65 59.16 82.87
  C 62.93 83.99 62.91 88.35 67.49 88.00
  C 71.34 87.71 71.42 83.61 69.34 81.12
  Q 66.11 77.27 60.70 76.32"
/>
<path stroke="#baa0dd" vector-effect="non-scaling-stroke" d="
  M 54.85 116.46
  Q 50.92 116.21 49.99 119.97"
/>
<path stroke="#baa0dd" vector-effect="non-scaling-stroke" d="
  M 51.96 151.85
  C 48.84 147.44 49.99 138.20 49.98 132.83
  Q 49.98 132.26 49.42 132.21
  C 46.46 131.90 44.23 129.38 46.69 126.81"
/>
<path stroke="#baa0dd" vector-effect="non-scaling-stroke" d="
  M 120.53 76.21
  C 110.92 76.45 104.95 88.18 116.48 91.56
  Q 121.52 93.03 126.68 94.57
  A 1.60 1.60 0.0 0 1 126.98 97.52
  Q 122.53 99.90 118.49 96.98
  A 2.25 2.18 5.5 0 1 117.81 96.18
  Q 115.70 91.91 111.24 93.68
  A 1.35 1.34 -0.6 0 0 110.48 94.45
  C 108.07 100.65 115.51 103.92 120.39 104.21"
/>
<path stroke="#baa0dd" vector-effect="non-scaling-stroke" d="
  M 92.72 104.24
  C 101.00 103.35 105.64 98.38 105.76 90.05
  Q 105.93 79.03 93.57 76.16"
/>
<path stroke="#baa0dd" vector-effect="non-scaling-stroke" d="
  M 136.30 93.80
  C 136.71 100.82 131.66 103.75 125.53 104.25"
/>
<path stroke="#baa0dd" vector-effect="non-scaling-stroke" d="
  M 133.67 85.78
  C 137.84 80.01 129.77 76.85 125.38 76.27"
/>
<path stroke="#b69dd6" vector-effect="non-scaling-stroke" d="
  M 86.57 135.05
  C 80.68 136.84 65.93 136.93 67.95 146.72
  C 69.81 155.73 81.81 154.52 87.64 150.58
  A 0.84 0.83 56.9 0 1 88.81 150.83
  C 91.16 154.60 97.64 154.78 96.69 149.05
  Q 95.83 143.87 95.74 134.77
  Q 95.67 127.90 89.61 126.15
  C 84.37 124.64 70.37 124.44 69.24 132.33
  C 68.74 135.79 71.66 137.37 74.68 136.17
  A 1.54 1.50 -84.9 0 0 75.44 135.52
  Q 78.10 131.01 83.72 131.57
  Q 86.54 131.85 87.03 134.28
  Q 87.14 134.87 86.57 135.05"
/>
<path stroke="#814fc1" vector-effect="non-scaling-stroke" d="
  M 129.77 151.90
  L 130.26 152.99
  A 0.66 0.66 0.0 0 0 130.88 153.38
  L 151.29 153.08
  A 1.61 1.61 0.0 0 0 152.87 151.47
  L 152.82 126.47
  A 0.98 0.98 0.0 0 0 151.81 125.49
  C 145.46 125.71 139.15 125.99 132.79 125.44
  Q 129.28 125.14 126.48 127.22"
/>
<path stroke="#b69dd6" vector-effect="non-scaling-stroke" d="
  M 126.48 127.22
  Q 118.47 123.12 111.64 128.00
  Q 111.21 128.31 110.93 127.85
  C 108.83 124.34 102.88 124.49 102.76 129.00
  Q 102.64 133.43 102.74 147.68
  C 102.76 150.57 103.31 153.17 106.47 153.54
  C 115.53 154.58 109.31 139.54 112.68 134.34
  C 114.74 131.16 121.04 130.75 121.20 135.75
  Q 121.40 141.89 121.53 147.98
  Q 121.73 156.79 129.77 151.90"
/>
<path stroke="#baa0dd" vector-effect="non-scaling-stroke" d="
  M 126.48 127.22
  Q 129.97 130.03 129.97 135.75
  Q 129.98 147.46 129.77 151.90"
/>
<path stroke="#baa0dd" vector-effect="non-scaling-stroke" d="
  M 87.56 17.30
  Q 82.20 18.15 83.50 23.36"
/>
<path stroke="#2c1c40" vector-effect="non-scaling-stroke" d="
  M 148.51 0.00
  L 146.27 0.23"
/>
<path stroke="#2c1c40" vector-effect="non-scaling-stroke" d="
  M 164.36 0.00
  Q 177.88 2.09 180.00 15.50"
/>
<path stroke="#2c1c40" vector-effect="non-scaling-stroke" d="
  M 180.00 32.57
  L 179.67 36.45"
/>
<path stroke="#6f45a4" vector-effect="non-scaling-stroke" d="
  M 179.67 36.45
  L 177.29 29.51"
/>
<path stroke="#432964" vector-effect="non-scaling-stroke" d="
  M 0.00 37.01
  L 0.47 34.02"
/>
<path stroke="#432964" vector-effect="non-scaling-stroke" d="
  M 179.67 36.45
  L 180.00 40.01"
/>
<path stroke="#b69dd6" vector-effect="non-scaling-stroke" d="
  M 90.6790 98.0799
  A 7.84 6.45 90.3 0 0 97.1699 90.2738
  A 7.84 6.45 90.3 0 0 90.7610 82.4001
  A 7.84 6.45 90.3 0 0 84.2701 90.2062
  A 7.84 6.45 90.3 0 0 90.6790 98.0799"
/>
<path stroke="#b69dd6" vector-effect="non-scaling-stroke" d="
  M 78.48 142.73
  C 75.87 143.49 76.06 146.59 78.54 147.29
  C 82.59 148.43 87.80 146.27 87.02 141.34
  Q 86.95 140.89 86.50 140.95
  Q 82.38 141.57 78.48 142.73"
/>
<path stroke="#432964" vector-effect="non-scaling-stroke" d="
  M 180.00 141.84
  Q 179.85 143.99 179.52 143.71"
/>
<path stroke="#6f45a4" vector-effect="non-scaling-stroke" d="
  M 179.52 143.71
  L 177.17 152.62"
/>
<path stroke="#6f45a4" vector-effect="non-scaling-stroke" d="
  M 2.95 153.25
  L 0.00 143.30"
/>
<path stroke="#2c1c40" vector-effect="non-scaling-stroke" d="
  M 180.00 150.27
  L 179.52 143.71"
/>
<path stroke="#6f45a4" vector-effect="non-scaling-stroke" d="
  M 27.88 177.34
  L 35.51 180.00"
/>
<path stroke="#2c1c40" vector-effect="non-scaling-stroke" d="
  M 15.72 180.00
  Q 2.06 178.10 0.00 164.39"
/>
<path stroke="#2c1c40" vector-effect="non-scaling-stroke" d="
  M 180.00 164.74
  Q 177.54 178.50 163.77 180.00"
/>
<path stroke="#6f45a4" vector-effect="non-scaling-stroke" d="
  M 143.62 180.00
  L 148.07 178.54"
/>
</g>
<path fill="#000000" d="
  M 0.00 0.00
  L 15.85 0.00
  Q 2.31 1.86 0.00 15.42
  L 0.00 0.00
  Z"
/>
<path fill="#583880" d="
  M 15.85 0.00
  L 30.86 0.00
  L 35.86 0.36
  L 27.55 2.70
  L 22.74 5.08
  Q 10.83 11.25 4.73 23.28
  L 2.77 27.77
  L 0.47 34.02
  L 0.00 31.97
  L 0.00 15.42
  Q 2.31 1.86 15.85 0.00
  Z"
/>
<path fill="#000000" d="
  M 30.86 0.00
  L 37.12 0.00
  L 35.86 0.36
  L 30.86 0.00
  Z"
/>
<path fill="#8552c8" d="
  M 37.12 0.00
  L 55.31 0.00
  L 55.24 20.93
  A 2.23 2.23 0.0 0 1 53.00 23.15
  L 27.98 23.03
  Q 27.50 23.03 27.50 22.54
  L 27.55 2.70
  L 35.86 0.36
  L 37.12 0.00
  Z"
/>
<path fill="#7c4cba" d="
  M 55.31 0.00
  L 60.04 0.00
  L 59.98 21.41
  A 1.79 1.79 0.0 0 0 61.76 23.21
  L 83.50 23.36
  Q 85.61 26.09 88.90 25.34
  C 93.80 24.24 92.79 17.89 87.56 17.30
  L 87.91 0.00
  L 142.85 0.00
  L 146.27 0.23
  L 146.45 0.69
  Q 146.63 1.15 147.10 1.26
  Q 160.22 4.47 169.35 14.39
  Q 175.44 20.99 177.29 29.51
  Q 176.35 30.01 176.06 28.35
  Q 175.98 27.93 175.56 27.93
  L 158.32 27.92
  A 1.04 1.04 0.0 0 0 157.29 29.06
  Q 158.55 41.76 157.53 54.48
  A 1.08 1.06 -87.8 0 0 158.59 55.64
  L 180.00 55.61
  L 180.00 60.39
  Q 169.83 61.14 158.83 60.36
  A 1.29 1.28 -88.2 0 0 157.45 61.66
  L 157.78 87.54
  A 0.83 0.83 0.0 0 0 158.62 88.36
  L 180.00 88.09
  L 180.00 92.75
  Q 169.61 93.92 159.15 92.68
  A 1.47 1.47 0.0 0 0 157.50 94.16
  L 157.71 120.10
  A 0.76 0.75 -0.7 0 0 158.49 120.85
  L 180.00 120.25
  L 180.00 125.38
  L 158.14 125.27
  A 0.97 0.96 88.1 0 0 157.17 126.31
  Q 158.13 139.24 157.50 152.16
  A 0.83 0.83 0.0 0 0 158.35 153.04
  L 177.17 152.62
  Q 169.18 172.18 148.07 178.54
  Q 149.42 177.53 152.03 176.75
  Q 154.07 176.15 153.57 174.36
  Q 153.03 172.44 153.00 172.03
  Q 152.65 165.51 152.75 158.73
  A 0.52 0.51 -89.4 0 0 152.24 158.20
  L 125.75 158.17
  Q 124.78 158.16 124.86 159.13
  Q 125.70 169.37 125.05 180.00
  L 120.29 180.00
  L 120.23 158.92
  A 0.93 0.93 0.0 0 0 119.29 157.99
  L 93.68 158.19
  Q 92.35 158.20 92.36 159.52
  L 92.56 180.00
  L 88.00 180.00
  L 87.91 158.87
  A 0.82 0.82 0.0 0 0 87.09 158.06
  L 61.67 158.09
  Q 60.15 158.09 60.15 159.60
  L 60.13 180.00
  L 55.32 180.00
  L 55.14 159.39
  A 1.29 1.29 0.0 0 0 53.85 158.11
  L 28.41 158.16
  A 0.68 0.67 -0.8 0 0 27.74 158.84
  L 27.88 177.34
  Q 10.63 170.92 2.95 153.25
  Q 12.06 152.44 20.87 153.30
  A 1.51 1.51 0.0 0 0 22.52 151.81
  L 22.79 126.45
  A 0.92 0.92 0.0 0 0 21.87 125.52
  L 0.00 125.66
  L 0.00 120.70
  C 4.81 119.57 9.85 120.56 13.54 120.61
  Q 17.16 120.66 21.14 120.70
  A 1.39 1.38 -89.4 0 0 22.53 119.33
  L 22.87 94.42
  A 1.62 1.62 0.0 0 0 21.26 92.78
  L 0.00 92.62
  L 0.00 88.11
  L 21.45 88.24
  A 1.15 1.15 0.0 0 0 22.61 87.10
  L 22.84 62.87
  Q 22.86 60.48 20.47 60.49
  L 0.00 60.58
  L 0.00 55.55
  L 21.32 55.61
  A 1.07 1.06 0.3 0 0 22.39 54.56
  L 22.57 28.49
  A 0.71 0.71 0.0 0 0 21.86 27.78
  L 2.77 27.77
  L 4.73 23.28
  L 21.43 23.24
  A 1.51 1.51 0.0 0 0 22.93 21.71
  L 22.74 5.08
  L 27.55 2.70
  L 27.50 22.54
  Q 27.50 23.03 27.98 23.03
  L 53.00 23.15
  A 2.23 2.23 0.0 0 0 55.24 20.93
  L 55.31 0.00
  Z
  M 124.76 54.98
  L 151.56 55.40
  A 1.07 1.07 0.0 0 0 152.65 54.33
  L 152.65 29.25
  A 1.40 1.40 0.0 0 0 151.24 27.85
  L 127.46 28.06
  A 1.52 1.52 0.0 0 0 126.05 30.11
  Q 126.88 32.32 125.82 32.08
  Q 118.40 22.90 107.86 29.56
  Q 107.50 29.79 107.27 29.43
  Q 104.61 25.09 100.17 27.93
  A 1.41 1.41 0.0 0 0 99.59 28.70
  Q 99.08 30.38 99.06 32.75
  Q 98.97 41.62 99.22 50.50
  Q 99.36 55.92 104.74 54.78
  Q 107.92 54.11 107.87 50.74
  Q 107.78 44.75 108.04 38.75
  C 108.29 33.20 117.36 30.50 117.52 38.28
  Q 117.62 43.54 117.64 48.93
  Q 117.66 52.66 118.86 53.85
  Q 120.67 55.64 124.76 54.98
  Z
  M 53.34 29.92
  L 52.18 28.33
  Q 51.89 27.94 51.41 27.94
  L 28.40 27.97
  A 1.07 1.07 0.0 0 0 27.34 29.13
  Q 28.49 41.86 27.69 54.61
  A 0.98 0.97 -88.3 0 0 28.66 55.65
  L 53.63 55.73
  Q 54.06 55.73 54.38 55.44
  Q 55.19 54.70 55.70 53.63
  C 62.26 56.10 76.76 56.36 77.22 46.61
  C 77.60 38.58 65.81 37.34 60.26 35.88
  A 1.28 1.28 0.0 0 1 60.00 33.51
  Q 64.38 31.26 67.53 34.41
  C 69.99 36.88 72.54 38.65 75.30 35.65
  A 1.31 1.31 0.0 0 0 75.65 34.87
  Q 75.95 31.25 74.33 30.22
  Q 63.83 23.52 53.34 29.92
  Z
  M 91.95 30.92
  A 3.92 3.92 0.0 0 0 88.03 27.00
  L 87.13 27.00
  A 3.92 3.92 0.0 0 0 83.21 30.92
  L 83.21 51.16
  A 3.92 3.92 0.0 0 0 87.13 55.08
  L 88.03 55.08
  A 3.92 3.92 0.0 0 0 91.95 51.16
  L 91.95 30.92
  Z
  M 42.36 88.05
  L 42.60 94.59
  Q 40.24 92.74 38.25 92.82
  Q 33.40 93.02 29.10 92.80
  A 1.55 1.55 0.0 0 0 27.47 94.37
  L 27.89 120.15
  A 0.83 0.82 -3.2 0 0 28.80 120.96
  C 35.95 120.22 43.00 121.09 49.99 119.97
  L 49.96 125.18
  Q 49.96 125.71 49.46 125.88
  L 46.69 126.81
  L 44.92 125.62
  Q 44.50 125.34 44.00 125.39
  Q 36.67 126.13 29.31 125.36
  A 1.52 1.51 -87.3 0 0 27.65 126.88
  L 27.79 152.34
  A 0.89 0.88 89.7 0 0 28.68 153.23
  L 49.87 153.22
  A 0.98 0.98 0.0 0 0 50.56 152.91
  Q 51.30 152.10 51.96 151.85
  Q 57.64 154.96 64.30 152.83
  C 67.13 151.93 67.75 148.15 65.23 146.94
  C 63.71 146.21 61.76 146.94 60.11 147.04
  Q 58.69 147.13 58.69 145.70
  L 58.69 132.76
  A 0.57 0.57 0.0 0 1 59.31 132.19
  C 61.37 132.42 63.84 132.01 64.39 129.69
  C 65.22 126.23 61.59 126.00 59.28 125.95
  Q 58.71 125.94 58.70 125.36
  C 58.65 122.00 59.72 117.14 54.85 116.46
  Q 55.82 110.44 54.38 104.13
  L 59.27 104.16
  Q 59.29 104.34 59.27 104.45
  Q 59.24 104.63 59.25 104.63
  Q 59.39 104.63 59.54 104.63
  Q 59.79 104.63 59.80 104.89
  L 60.18 118.24
  A 2.75 2.75 0.0 0 0 62.99 120.91
  L 86.60 120.39
  A 1.24 1.24 0.0 0 0 87.82 119.15
  L 87.78 107.71
  A 1.70 1.69 -65.1 0 0 87.41 106.68
  L 84.93 103.63
  L 92.72 104.24
  L 92.43 118.21
  A 2.75 2.74 -1.3 0 0 95.35 121.00
  Q 105.29 120.37 115.23 120.76
  Q 117.62 120.85 119.26 120.18
  Q 119.80 119.95 119.82 119.37
  L 120.39 104.21
  L 125.53 104.25
  L 124.98 118.07
  A 2.69 2.68 -89.2 0 0 127.69 120.86
  L 151.28 120.65
  A 1.68 1.67 -0.5 0 0 152.94 118.97
  L 152.83 94.31
  A 1.43 1.42 1.5 0 0 151.49 92.90
  Q 143.82 92.44 136.30 93.80
  C 133.93 87.67 125.57 86.59 119.72 85.35
  A 1.42 1.41 32.3 0 1 119.15 82.84
  C 125.33 78.11 126.97 88.66 133.67 85.78
  Q 133.78 88.03 135.99 88.02
  Q 143.80 88.01 151.62 88.18
  A 1.13 1.12 -89.3 0 0 152.77 87.05
  L 152.85 61.22
  Q 152.85 60.59 152.22 60.58
  L 125.92 60.38
  A 0.99 0.98 -0.8 0 0 124.92 61.40
  L 125.38 76.27
  L 120.53 76.21
  L 120.66 62.16
  A 1.86 1.86 0.0 0 0 118.78 60.28
  L 93.75 60.55
  A 1.17 1.15 -87.5 0 0 92.61 61.61
  Q 91.93 69.21 93.57 76.16
  L 87.49 76.23
  L 87.99 62.89
  Q 88.09 60.29 85.49 60.31
  L 60.55 60.48
  A 0.76 0.75 -1.8 0 0 59.80 61.27
  L 60.70 76.32
  L 54.26 76.26
  Q 55.58 70.06 55.53 63.20
  C 55.51 60.86 54.48 60.11 52.24 60.20
  Q 40.31 60.63 29.27 60.45
  A 1.70 1.69 0.2 0 0 27.54 62.16
  L 27.79 87.06
  A 1.23 1.23 0.0 0 0 29.06 88.27
  L 41.16 87.88
  Q 41.38 87.87 41.54 87.72
  L 41.75 87.51
  Q 42.11 87.14 42.31 87.62
  Q 42.37 87.78 42.36 88.05
  Z
  M 86.57 135.05
  C 80.68 136.84 65.93 136.93 67.95 146.72
  C 69.81 155.73 81.81 154.52 87.64 150.58
  A 0.84 0.83 56.9 0 1 88.81 150.83
  C 91.16 154.60 97.64 154.78 96.69 149.05
  Q 95.83 143.87 95.74 134.77
  Q 95.67 127.90 89.61 126.15
  C 84.37 124.64 70.37 124.44 69.24 132.33
  C 68.74 135.79 71.66 137.37 74.68 136.17
  A 1.54 1.50 -84.9 0 0 75.44 135.52
  Q 78.10 131.01 83.72 131.57
  Q 86.54 131.85 87.03 134.28
  Q 87.14 134.87 86.57 135.05
  Z
  M 129.77 151.90
  L 130.26 152.99
  A 0.66 0.66 0.0 0 0 130.88 153.38
  L 151.29 153.08
  A 1.61 1.61 0.0 0 0 152.87 151.47
  L 152.82 126.47
  A 0.98 0.98 0.0 0 0 151.81 125.49
  C 145.46 125.71 139.15 125.99 132.79 125.44
  Q 129.28 125.14 126.48 127.22
  Q 118.47 123.12 111.64 128.00
  Q 111.21 128.31 110.93 127.85
  C 108.83 124.34 102.88 124.49 102.76 129.00
  Q 102.64 133.43 102.74 147.68
  C 102.76 150.57 103.31 153.17 106.47 153.54
  C 115.53 154.58 109.31 139.54 112.68 134.34
  C 114.74 131.16 121.04 130.75 121.20 135.75
  Q 121.40 141.89 121.53 147.98
  Q 121.73 156.79 129.77 151.90
  Z"
/>
<path fill="#8552c8" d="
  M 60.04 0.00
  L 87.91 0.00
  L 87.56 17.30
  Q 82.20 18.15 83.50 23.36
  L 61.76 23.21
  A 1.79 1.79 0.0 0 1 59.98 21.41
  L 60.04 0.00
  Z"
/>
<path fill="#000000" d="
  M 142.85 0.00
  L 148.51 0.00
  L 146.27 0.23
  L 142.85 0.00
  Z"
/>
<path fill="#583880" d="
  M 148.51 0.00
  L 164.36 0.00
  Q 177.88 2.09 180.00 15.50
  L 180.00 32.57
  L 179.67 36.45
  L 177.29 29.51
  Q 175.44 20.99 169.35 14.39
  Q 160.22 4.47 147.10 1.26
  Q 146.63 1.15 146.45 0.69
  L 146.27 0.23
  L 148.51 0.00
  Z"
/>
<path fill="#000000" d="
  M 164.36 0.00
  L 180.00 0.00
  L 180.00 15.50
  Q 177.88 2.09 164.36 0.00
  Z"
/>
<path fill="#8552c8" d="
  M 22.74 5.08
  L 22.93 21.71
  A 1.51 1.51 0.0 0 1 21.43 23.24
  L 4.73 23.28
  Q 10.83 11.25 22.74 5.08
  Z"
/>
<path fill="#efedf2" d="
  M 87.56 17.30
  C 92.79 17.89 93.80 24.24 88.90 25.34
  Q 85.61 26.09 83.50 23.36
  Q 82.20 18.15 87.56 17.30
  Z"
/>
<path fill="#efedf2" d="
  M 125.82 32.08
  Q 126.66 38.85 126.50 49.50
  Q 126.46 52.08 124.76 54.98
  Q 120.67 55.64 118.86 53.85
  Q 117.66 52.66 117.64 48.93
  Q 117.62 43.54 117.52 38.28
  C 117.36 30.50 108.29 33.20 108.04 38.75
  Q 107.78 44.75 107.87 50.74
  Q 107.92 54.11 104.74 54.78
  Q 99.36 55.92 99.22 50.50
  Q 98.97 41.62 99.06 32.75
  Q 99.08 30.38 99.59 28.70
  A 1.41 1.41 0.0 0 1 100.17 27.93
  Q 104.61 25.09 107.27 29.43
  Q 107.50 29.79 107.86 29.56
  Q 118.40 22.90 125.82 32.08
  Z"
/>
<path fill="#efedf2" d="
  M 55.70 53.63
  C 53.25 52.43 49.47 48.88 51.37 45.84
  C 55.00 40.03 58.50 47.90 61.61 48.91
  C 63.21 49.44 67.44 49.73 68.34 47.79
  A 2.01 2.00 18.4 0 0 66.93 44.99
  C 60.16 43.58 45.49 40.69 53.34 29.92
  Q 63.83 23.52 74.33 30.22
  Q 75.95 31.25 75.65 34.87
  A 1.31 1.31 0.0 0 1 75.30 35.65
  C 72.54 38.65 69.99 36.88 67.53 34.41
  Q 64.38 31.26 60.00 33.51
  A 1.28 1.28 0.0 0 0 60.26 35.88
  C 65.81 37.34 77.60 38.58 77.22 46.61
  C 76.76 56.36 62.26 56.10 55.70 53.63
  Z"
/>
<rect fill="#efedf2" x="83.21" y="27.00" width="8.74" height="28.08" rx="3.92"/>
<path fill="#8552c8" d="
  M 0.00 55.55
  L 0.00 37.01
  L 0.47 34.02
  L 2.77 27.77
  L 21.86 27.78
  A 0.71 0.71 0.0 0 1 22.57 28.49
  L 22.39 54.56
  A 1.07 1.06 0.3 0 1 21.32 55.61
  L 0.00 55.55
  Z"
/>
<path fill="#8552c8" d="
  M 53.34 29.92
  C 45.49 40.69 60.16 43.58 66.93 44.99
  A 2.01 2.00 18.4 0 1 68.34 47.79
  C 67.44 49.73 63.21 49.44 61.61 48.91
  C 58.50 47.90 55.00 40.03 51.37 45.84
  C 49.47 48.88 53.25 52.43 55.70 53.63
  Q 55.19 54.70 54.38 55.44
  Q 54.06 55.73 53.63 55.73
  L 28.66 55.65
  A 0.98 0.97 -88.3 0 1 27.69 54.61
  Q 28.49 41.86 27.34 29.13
  A 1.07 1.07 0.0 0 1 28.40 27.97
  L 51.41 27.94
  Q 51.89 27.94 52.18 28.33
  L 53.34 29.92
  Z"
/>
<path fill="#8552c8" d="
  M 124.76 54.98
  Q 126.46 52.08 126.50 49.50
  Q 126.66 38.85 125.82 32.08
  Q 126.88 32.32 126.05 30.11
  A 1.52 1.52 0.0 0 1 127.46 28.06
  L 151.24 27.85
  A 1.40 1.40 0.0 0 1 152.65 29.25
  L 152.65 54.33
  A 1.07 1.07 0.0 0 1 151.56 55.40
  L 124.76 54.98
  Z"
/>
<path fill="#8552c8" d="
  M 177.29 29.51
  L 179.67 36.45
  L 180.00 40.01
  L 180.00 55.61
  L 158.59 55.64
  A 1.08 1.06 -87.8 0 1 157.53 54.48
  Q 158.55 41.76 157.29 29.06
  A 1.04 1.04 0.0 0 1 158.32 27.92
  L 175.56 27.93
  Q 175.98 27.93 176.06 28.35
  Q 176.35 30.01 177.29 29.51
  Z"
/>
<path fill="#000000" d="
  M 0.00 31.97
  L 0.47 34.02
  L 0.00 37.01
  L 0.00 31.97
  Z"
/>
<path fill="#000000" d="
  M 180.00 32.57
  L 180.00 40.01
  L 179.67 36.45
  L 180.00 32.57
  Z"
/>
<path fill="#8552c8" d="
  M 0.00 60.58
  L 20.47 60.49
  Q 22.86 60.48 22.84 62.87
  L 22.61 87.10
  A 1.15 1.15 0.0 0 1 21.45 88.24
  L 0.00 88.11
  L 0.00 60.58
  Z"
/>
<path fill="#8552c8" d="
  M 54.26 76.26
  Q 44.05 78.22 42.36 88.05
  Q 42.37 87.78 42.31 87.62
  Q 42.11 87.14 41.75 87.51
  L 41.54 87.72
  Q 41.38 87.87 41.16 87.88
  L 29.06 88.27
  A 1.23 1.23 0.0 0 1 27.79 87.06
  L 27.54 62.16
  A 1.70 1.69 0.2 0 1 29.27 60.45
  Q 40.31 60.63 52.24 60.20
  C 54.48 60.11 55.51 60.86 55.53 63.20
  Q 55.58 70.06 54.26 76.26
  Z"
/>
<path fill="#8552c8" d="
  M 87.49 76.23
  Q 73.88 79.84 75.93 92.68
  Q 76.59 96.76 78.70 99.36
  Q 81.12 102.33 84.93 103.63
  L 87.41 106.68
  A 1.70 1.69 -65.1 0 1 87.78 107.71
  L 87.82 119.15
  A 1.24 1.24 0.0 0 1 86.60 120.39
  L 62.99 120.91
  A 2.75 2.75 0.0 0 1 60.18 118.24
  L 59.80 104.89
  Q 59.79 104.63 59.54 104.63
  Q 59.39 104.63 59.25 104.63
  Q 59.24 104.63 59.27 104.45
  Q 59.29 104.34 59.27 104.16
  Q 65.08 103.89 69.08 99.86
  C 71.13 97.80 72.39 93.06 68.49 92.07
  C 63.94 90.92 63.49 96.07 60.01 97.39
  C 48.20 101.85 48.42 79.65 59.16 82.87
  C 62.93 83.99 62.91 88.35 67.49 88.00
  C 71.34 87.71 71.42 83.61 69.34 81.12
  Q 66.11 77.27 60.70 76.32
  L 59.80 61.27
  A 0.76 0.75 -1.8 0 1 60.55 60.48
  L 85.49 60.31
  Q 88.09 60.29 87.99 62.89
  L 87.49 76.23
  Z"
/>
<path fill="#8552c8" d="
  M 120.53 76.21
  C 110.92 76.45 104.95 88.18 116.48 91.56
  Q 121.52 93.03 126.68 94.57
  A 1.60 1.60 0.0 0 1 126.98 97.52
  Q 122.53 99.90 118.49 96.98
  A 2.25 2.18 5.5 0 1 117.81 96.18
  Q 115.70 91.91 111.24 93.68
  A 1.35 1.34 -0.6 0 0 110.48 94.45
  C 108.07 100.65 115.51 103.92 120.39 104.21
  L 119.82 119.37
  Q 119.80 119.95 119.26 120.18
  Q 117.62 120.85 115.23 120.76
  Q 105.29 120.37 95.35 121.00
  A 2.75 2.74 -1.3 0 1 92.43 118.21
  L 92.72 104.24
  C 101.00 103.35 105.64 98.38 105.76 90.05
  Q 105.93 79.03 93.57 76.16
  Q 91.93 69.21 92.61 61.61
  A 1.17 1.15 -87.5 0 1 93.75 60.55
  L 118.78 60.28
  A 1.86 1.86 0.0 0 1 120.66 62.16
  L 120.53 76.21
  Z"
/>
<path fill="#8552c8" d="
  M 133.67 85.78
  C 137.84 80.01 129.77 76.85 125.38 76.27
  L 124.92 61.40
  A 0.99 0.98 -0.8 0 1 125.92 60.38
  L 152.22 60.58
  Q 152.85 60.59 152.85 61.22
  L 152.77 87.05
  A 1.13 1.12 -89.3 0 1 151.62 88.18
  Q 143.80 88.01 135.99 88.02
  Q 133.78 88.03 133.67 85.78
  Z"
/>
<path fill="#8552c8" d="
  M 180.00 60.39
  L 180.00 88.09
  L 158.62 88.36
  A 0.83 0.83 0.0 0 1 157.78 87.54
  L 157.45 61.66
  A 1.29 1.28 -88.2 0 1 158.83 60.36
  Q 169.83 61.14 180.00 60.39
  Z"
/>
<path fill="#efedf2" d="
  M 54.26 76.26
  L 60.70 76.32
  Q 66.11 77.27 69.34 81.12
  C 71.42 83.61 71.34 87.71 67.49 88.00
  C 62.91 88.35 62.93 83.99 59.16 82.87
  C 48.42 79.65 48.20 101.85 60.01 97.39
  C 63.49 96.07 63.94 90.92 68.49 92.07
  C 72.39 93.06 71.13 97.80 69.08 99.86
  Q 65.08 103.89 59.27 104.16
  L 54.38 104.13
  Q 45.47 103.22 42.60 94.59
  L 42.36 88.05
  Q 44.05 78.22 54.26 76.26
  Z"
/>
<path fill="#efedf2" d="
  M 93.57 76.16
  Q 105.93 79.03 105.76 90.05
  C 105.64 98.38 101.00 103.35 92.72 104.24
  L 84.93 103.63
  Q 81.12 102.33 78.70 99.36
  Q 76.59 96.76 75.93 92.68
  Q 73.88 79.84 87.49 76.23
  L 93.57 76.16
  Z
  M 90.6790 98.0799
  A 7.84 6.45 90.3 0 0 97.1699 90.2738
  A 7.84 6.45 90.3 0 0 90.7610 82.4001
  A 7.84 6.45 90.3 0 0 84.2701 90.2062
  A 7.84 6.45 90.3 0 0 90.6790 98.0799
  Z"
/>
<path fill="#efedf2" d="
  M 120.53 76.21
  L 125.38 76.27
  C 129.77 76.85 137.84 80.01 133.67 85.78
  C 126.97 88.66 125.33 78.11 119.15 82.84
  A 1.42 1.41 32.3 0 0 119.72 85.35
  C 125.57 86.59 133.93 87.67 136.30 93.80
  C 136.71 100.82 131.66 103.75 125.53 104.25
  L 120.39 104.21
  C 115.51 103.92 108.07 100.65 110.48 94.45
  A 1.35 1.34 -0.6 0 1 111.24 93.68
  Q 115.70 91.91 117.81 96.18
  A 2.25 2.18 5.5 0 0 118.49 96.98
  Q 122.53 99.90 126.98 97.52
  A 1.60 1.60 0.0 0 0 126.68 94.57
  Q 121.52 93.03 116.48 91.56
  C 104.95 88.18 110.92 76.45 120.53 76.21
  Z"
/>
<ellipse fill="#7c4cba" cx="0.00" cy="0.00" transform="translate(90.72,90.24) rotate(90.3)" rx="7.84" ry="6.45"/>
<path fill="#8552c8" d="
  M 0.00 92.62
  L 21.26 92.78
  A 1.62 1.62 0.0 0 1 22.87 94.42
  L 22.53 119.33
  A 1.39 1.38 -89.4 0 1 21.14 120.70
  Q 17.16 120.66 13.54 120.61
  C 9.85 120.56 4.81 119.57 0.00 120.70
  L 0.00 92.62
  Z"
/>
<path fill="#8552c8" d="
  M 180.00 92.75
  L 180.00 120.25
  L 158.49 120.85
  A 0.76 0.75 -0.7 0 1 157.71 120.10
  L 157.50 94.16
  A 1.47 1.47 0.0 0 1 159.15 92.68
  Q 169.61 93.92 180.00 92.75
  Z"
/>
<path fill="#8552c8" d="
  M 42.60 94.59
  Q 45.47 103.22 54.38 104.13
  Q 55.82 110.44 54.85 116.46
  Q 50.92 116.21 49.99 119.97
  C 43.00 121.09 35.95 120.22 28.80 120.96
  A 0.83 0.82 -3.2 0 1 27.89 120.15
  L 27.47 94.37
  A 1.55 1.55 0.0 0 1 29.10 92.80
  Q 33.40 93.02 38.25 92.82
  Q 40.24 92.74 42.60 94.59
  Z"
/>
<path fill="#8552c8" d="
  M 125.53 104.25
  C 131.66 103.75 136.71 100.82 136.30 93.80
  Q 143.82 92.44 151.49 92.90
  A 1.43 1.42 1.5 0 1 152.83 94.31
  L 152.94 118.97
  A 1.68 1.67 -0.5 0 1 151.28 120.65
  L 127.69 120.86
  A 2.69 2.68 -89.2 0 1 124.98 118.07
  L 125.53 104.25
  Z"
/>
<path fill="#efedf2" d="
  M 54.85 116.46
  C 59.72 117.14 58.65 122.00 58.70 125.36
  Q 58.71 125.94 59.28 125.95
  C 61.59 126.00 65.22 126.23 64.39 129.69
  C 63.84 132.01 61.37 132.42 59.31 132.19
  A 0.57 0.57 0.0 0 0 58.69 132.76
  L 58.69 145.70
  Q 58.69 147.13 60.11 147.04
  C 61.76 146.94 63.71 146.21 65.23 146.94
  C 67.75 148.15 67.13 151.93 64.30 152.83
  Q 57.64 154.96 51.96 151.85
  C 48.84 147.44 49.99 138.20 49.98 132.83
  Q 49.98 132.26 49.42 132.21
  C 46.46 131.90 44.23 129.38 46.69 126.81
  L 49.46 125.88
  Q 49.96 125.71 49.96 125.18
  L 49.99 119.97
  Q 50.92 116.21 54.85 116.46
  Z"
/>
<path fill="#efedf2" d="
  M 87.03 134.28
  Q 86.54 131.85 83.72 131.57
  Q 78.10 131.01 75.44 135.52
  A 1.54 1.50 -84.9 0 1 74.68 136.17
  C 71.66 137.37 68.74 135.79 69.24 132.33
  C 70.37 124.44 84.37 124.64 89.61 126.15
  Q 95.67 127.90 95.74 134.77
  Q 95.83 143.87 96.69 149.05
  C 97.64 154.78 91.16 154.60 88.81 150.83
  A 0.84 0.83 56.9 0 0 87.64 150.58
  C 81.81 154.52 69.81 155.73 67.95 146.72
  C 65.93 136.93 80.68 136.84 86.57 135.05
  Q 87.14 134.87 87.03 134.28
  Z
  M 78.48 142.73
  C 75.87 143.49 76.06 146.59 78.54 147.29
  C 82.59 148.43 87.80 146.27 87.02 141.34
  Q 86.95 140.89 86.50 140.95
  Q 82.38 141.57 78.48 142.73
  Z"
/>
<path fill="#efedf2" d="
  M 126.48 127.22
  Q 129.97 130.03 129.97 135.75
  Q 129.98 147.46 129.77 151.90
  Q 121.73 156.79 121.53 147.98
  Q 121.40 141.89 121.20 135.75
  C 121.04 130.75 114.74 131.16 112.68 134.34
  C 109.31 139.54 115.53 154.58 106.47 153.54
  C 103.31 153.17 102.76 150.57 102.74 147.68
  Q 102.64 133.43 102.76 129.00
  C 102.88 124.49 108.83 124.34 110.93 127.85
  Q 111.21 128.31 111.64 128.00
  Q 118.47 123.12 126.48 127.22
  Z"
/>
<path fill="#8552c8" d="
  M 180.00 125.38
  L 180.00 141.84
  Q 179.85 143.99 179.52 143.71
  L 177.17 152.62
  L 158.35 153.04
  A 0.83 0.83 0.0 0 1 157.50 152.16
  Q 158.13 139.24 157.17 126.31
  A 0.97 0.96 88.1 0 1 158.14 125.27
  L 180.00 125.38
  Z"
/>
<path fill="#8552c8" d="
  M 2.95 153.25
  L 0.00 143.30
  L 0.00 125.66
  L 21.87 125.52
  A 0.92 0.92 0.0 0 1 22.79 126.45
  L 22.52 151.81
  A 1.51 1.51 0.0 0 1 20.87 153.30
  Q 12.06 152.44 2.95 153.25
  Z"
/>
<path fill="#8552c8" d="
  M 46.69 126.81
  C 44.23 129.38 46.46 131.90 49.42 132.21
  Q 49.98 132.26 49.98 132.83
  C 49.99 138.20 48.84 147.44 51.96 151.85
  Q 51.30 152.10 50.56 152.91
  A 0.98 0.98 0.0 0 1 49.87 153.22
  L 28.68 153.23
  A 0.89 0.88 89.7 0 1 27.79 152.34
  L 27.65 126.88
  A 1.52 1.51 -87.3 0 1 29.31 125.36
  Q 36.67 126.13 44.00 125.39
  Q 44.50 125.34 44.92 125.62
  L 46.69 126.81
  Z"
/>
<path fill="#8552c8" d="
  M 129.77 151.90
  Q 129.98 147.46 129.97 135.75
  Q 129.97 130.03 126.48 127.22
  Q 129.28 125.14 132.79 125.44
  C 139.15 125.99 145.46 125.71 151.81 125.49
  A 0.98 0.98 0.0 0 1 152.82 126.47
  L 152.87 151.47
  A 1.61 1.61 0.0 0 1 151.29 153.08
  L 130.88 153.38
  A 0.66 0.66 0.0 0 1 130.26 152.99
  L 129.77 151.90
  Z"
/>
<path fill="#7c4cba" d="
  M 78.48 142.73
  Q 82.38 141.57 86.50 140.95
  Q 86.95 140.89 87.02 141.34
  C 87.80 146.27 82.59 148.43 78.54 147.29
  C 76.06 146.59 75.87 143.49 78.48 142.73
  Z"
/>
<path fill="#000000" d="
  M 180.00 141.84
  L 180.00 150.27
  L 179.52 143.71
  Q 179.85 143.99 180.00 141.84
  Z"
/>
<path fill="#583880" d="
  M 0.00 143.30
  L 2.95 153.25
  Q 10.63 170.92 27.88 177.34
  L 35.51 180.00
  L 15.72 180.00
  Q 2.06 178.10 0.00 164.39
  L 0.00 143.30
  Z"
/>
<path fill="#583880" d="
  M 179.52 143.71
  L 180.00 150.27
  L 180.00 164.74
  Q 177.54 178.50 163.77 180.00
  L 143.62 180.00
  L 148.07 178.54
  Q 169.18 172.18 177.17 152.62
  L 179.52 143.71
  Z"
/>
<path fill="#8552c8" d="
  M 88.00 180.00
  L 60.13 180.00
  L 60.15 159.60
  Q 60.15 158.09 61.67 158.09
  L 87.09 158.06
  A 0.82 0.82 0.0 0 1 87.91 158.87
  L 88.00 180.00
  Z"
/>
<path fill="#8552c8" d="
  M 120.29 180.00
  L 92.56 180.00
  L 92.36 159.52
  Q 92.35 158.20 93.68 158.19
  L 119.29 157.99
  A 0.93 0.93 0.0 0 1 120.23 158.92
  L 120.29 180.00
  Z"
/>
<path fill="#8552c8" d="
  M 55.32 180.00
  L 35.51 180.00
  L 27.88 177.34
  L 27.74 158.84
  A 0.68 0.67 -0.8 0 1 28.41 158.16
  L 53.85 158.11
  A 1.29 1.29 0.0 0 1 55.14 159.39
  L 55.32 180.00
  Z"
/>
<path fill="#8552c8" d="
  M 148.07 178.54
  L 143.62 180.00
  L 125.05 180.00
  Q 125.70 169.37 124.86 159.13
  Q 124.78 158.16 125.75 158.17
  L 152.24 158.20
  A 0.52 0.51 -89.4 0 1 152.75 158.73
  Q 152.65 165.51 153.00 172.03
  Q 153.03 172.44 153.57 174.36
  Q 154.07 176.15 152.03 176.75
  Q 149.42 177.53 148.07 178.54
  Z"
/>
<path fill="#000000" d="
  M 0.00 164.39
  Q 2.06 178.10 15.72 180.00
  L 0.00 180.00
  L 0.00 164.39
  Z"
/>
<path fill="#000000" d="
  M 180.00 164.74
  L 180.00 180.00
  L 163.77 180.00
  Q 177.54 178.50 180.00 164.74
  Z"
/>
</svg>
